<svg width="150" height="24" viewBox="0 0 150 24" fill="none" xmlns="http://www.w3.org/2000/svg">
<path d="M17.9999 24V22.2857C17.9999 22.0606 17.9611 21.8376 17.8857 21.6296C17.8104 21.4217 17.6999 21.2327 17.5606 21.0734C17.4212 20.9143 17.2559 20.788 17.074 20.7019C16.892 20.6157 16.6969 20.5714 16.4999 20.5714H10.4995C8.5104 20.5714 6.60275 19.6683 5.19621 18.0609C3.78968 16.4534 2.99949 14.2733 2.99946 12C2.99946 10.8744 3.19346 9.75978 3.57037 8.71985C3.94729 7.6799 4.49974 6.735 5.19619 5.93906C5.89264 5.14313 6.71943 4.51178 7.62938 4.08103C8.53932 3.65028 9.5146 3.4286 10.4995 3.42861H16.4995C16.6964 3.42867 16.8916 3.38438 17.0736 3.29827C17.2556 3.21214 17.4211 3.08588 17.5604 2.92669C17.6998 2.76748 17.8103 2.57848 17.8857 2.37046C17.9611 2.16244 17.9999 1.93948 17.9999 1.7143V0H10.4999C9.12099 0 7.75563 0.31039 6.48171 0.913447C5.2078 1.5165 4.0503 2.40042 3.0753 3.51472C2.1003 4.62903 1.32688 5.9519 0.799222 7.40781C0.271562 8.86371 -1.47734e-05 10.4241 6.02757e-10 12C-5.22196e-10 15.1825 1.10623 18.2348 3.07533 20.4853C5.04443 22.7357 7.71512 24 10.4999 24H17.9999Z" fill="#4A975F"/>
<path d="M6 12C6 13.364 6.47409 14.672 7.31797 15.6364C8.16184 16.6009 9.30639 17.1427 10.4998 17.1427H18.0004C18.7961 17.1427 19.5591 17.5039 20.1216 18.1469C20.6842 18.7898 21.0003 19.6619 21.0003 20.5713V23.9999H24.0004V20.5714C24.0004 18.7528 23.3683 17.0087 22.2431 15.7226C21.1178 14.4367 19.5917 13.7143 18.0004 13.7143H10.5C10.1022 13.7143 9.72068 13.5337 9.43936 13.2123C9.15806 12.8907 9.00002 12.4547 9.00002 12C9.00002 11.5453 9.15806 11.1093 9.43936 10.7878C9.72068 10.4663 10.1022 10.2857 10.5 10.2857H18.0004C19.5917 10.2857 21.1178 9.56326 22.2431 8.2773C23.3683 6.99135 24.0004 5.24722 24.0004 3.42861V0H20.9999V3.42861C20.9999 4.3378 20.6839 5.20978 20.1214 5.85273C19.5589 6.49567 18.796 6.85695 18.0004 6.85709H10.5C9.90908 6.85705 9.3239 6.99005 8.77791 7.2485C8.23193 7.50694 7.73584 7.88577 7.31797 8.36333C6.9001 8.84091 6.56863 9.40787 6.34249 10.0319C6.11635 10.6558 5.99998 11.3246 6 12Z" fill="#B4B718"/>
<path d="M47.3405 16.62V19.5H37.3605V5.3H47.1605V8.18H40.6405V10.94H46.2405V13.6H40.6405V16.62H47.3405ZM51.3331 9L53.1931 11.96L53.3931 12.34L53.5931 11.96L55.4531 9H58.7531L55.2331 14.22L58.8331 19.5H55.5331L53.5731 16.56L53.3931 16.18L53.2131 16.56L51.2531 19.5H47.9531L51.5531 14.28L48.0331 9H51.3331ZM64.4642 19.7C63.5709 19.7 62.7776 19.5533 62.0842 19.26C61.3909 18.9667 60.7976 18.5667 60.3042 18.06C59.8242 17.5533 59.4576 16.9733 59.2042 16.32C58.9509 15.6667 58.8242 14.9733 58.8242 14.24C58.8242 13.28 59.0442 12.3867 59.4842 11.56C59.9376 10.7333 60.5842 10.0667 61.4242 9.56C62.2642 9.05333 63.2776 8.8 64.4642 8.8C65.6642 8.8 66.6776 9.06 67.5042 9.58C68.3442 10.0867 68.9709 10.7533 69.3842 11.58L66.2642 12.52C66.0642 12.2 65.8042 11.9533 65.4842 11.78C65.1776 11.6067 64.8309 11.52 64.4442 11.52C64.0042 11.52 63.6042 11.6333 63.2442 11.86C62.8976 12.0867 62.6176 12.4 62.4042 12.8C62.2042 13.2 62.1042 13.68 62.1042 14.24C62.1042 14.7867 62.2109 15.2667 62.4242 15.68C62.6376 16.0933 62.9176 16.42 63.2642 16.66C63.6109 16.8867 64.0042 17 64.4442 17C64.7109 17 64.9576 16.96 65.1842 16.88C65.4242 16.7867 65.6376 16.66 65.8242 16.5C66.0242 16.34 66.1776 16.16 66.2842 15.96L69.4042 16.92C69.1509 17.4533 68.7842 17.9333 68.3042 18.36C67.8376 18.7733 67.2842 19.1 66.6442 19.34C66.0042 19.58 65.2776 19.7 64.4642 19.7ZM75.7728 19.7C74.8795 19.7 74.0862 19.56 73.3928 19.28C72.6995 18.9867 72.1062 18.5933 71.6128 18.1C71.1328 17.6067 70.7662 17.04 70.5128 16.4C70.2595 15.7467 70.1328 15.0667 70.1328 14.36C70.1328 13.3467 70.3528 12.4267 70.7928 11.6C71.2462 10.76 71.8928 10.0867 72.7328 9.58C73.5728 9.06 74.5862 8.8 75.7728 8.8C76.9595 8.8 77.9662 9.05333 78.7928 9.56C79.6328 10.0667 80.2728 10.7333 80.7128 11.56C81.1528 12.3733 81.3728 13.26 81.3728 14.22C81.3728 14.4067 81.3595 14.5933 81.3328 14.78C81.3195 14.9533 81.3062 15.1067 81.2928 15.24H73.5328C73.5728 15.7067 73.6995 16.1 73.9128 16.42C74.1395 16.74 74.4262 16.9867 74.7728 17.16C75.1195 17.32 75.4862 17.4 75.8728 17.4C76.3528 17.4 76.7995 17.2867 77.2128 17.06C77.6395 16.8333 77.9328 16.5267 78.0928 16.14L80.8128 16.9C80.5462 17.4467 80.1662 17.9333 79.6728 18.36C79.1928 18.7733 78.6195 19.1 77.9528 19.34C77.2995 19.58 76.5728 19.7 75.7728 19.7ZM73.4528 13.28H78.0128C77.9595 12.84 77.8328 12.46 77.6328 12.14C77.4328 11.8067 77.1662 11.5533 76.8328 11.38C76.4995 11.1933 76.1328 11.1 75.7328 11.1C75.3195 11.1 74.9462 11.1933 74.6128 11.38C74.2928 11.5533 74.0328 11.8067 73.8328 12.14C73.6328 12.46 73.5062 12.84 73.4528 13.28ZM82.7831 4.9H85.9831V15.76C85.9831 16.2 86.0631 16.5133 86.2231 16.7C86.3831 16.8867 86.6098 16.98 86.9031 16.98C87.1031 16.98 87.3031 16.9533 87.5031 16.9C87.7165 16.8333 87.9031 16.76 88.0631 16.68L88.4831 19.08C88.0831 19.2667 87.6231 19.4133 87.1031 19.52C86.5831 19.6267 86.0965 19.68 85.6431 19.68C84.7365 19.68 84.0298 19.44 83.5231 18.96C83.0298 18.4667 82.7831 17.7733 82.7831 16.88V4.9Z" fill="#4A975F"/>
<path d="M93.1225 12.28C93.1225 11.4133 93.2825 10.5667 93.6025 9.74C93.9225 8.9 94.3892 8.14 95.0025 7.46C95.6159 6.78 96.3625 6.24 97.2425 5.84C98.1225 5.42667 99.1225 5.22 100.243 5.22C101.576 5.22 102.729 5.50667 103.703 6.08C104.689 6.65333 105.423 7.4 105.903 8.32L103.383 10.08C103.169 9.57333 102.883 9.18 102.523 8.9C102.176 8.62 101.789 8.42667 101.363 8.32C100.949 8.2 100.549 8.14 100.163 8.14C99.5359 8.14 98.9892 8.26667 98.5225 8.52C98.0559 8.76 97.6692 9.08667 97.3625 9.5C97.0559 9.91333 96.8292 10.3733 96.6825 10.88C96.5359 11.3867 96.4625 11.8933 96.4625 12.4C96.4625 12.96 96.5492 13.5 96.7225 14.02C96.8959 14.54 97.1425 15 97.4625 15.4C97.7959 15.8 98.1959 16.12 98.6625 16.36C99.1292 16.5867 99.6425 16.7 100.203 16.7C100.603 16.7 101.009 16.6333 101.423 16.5C101.836 16.3667 102.216 16.16 102.563 15.88C102.923 15.5867 103.196 15.2067 103.383 14.74L106.063 16.32C105.783 17.0133 105.323 17.6067 104.683 18.1C104.043 18.5933 103.316 18.9733 102.503 19.24C101.703 19.4933 100.909 19.62 100.123 19.62C99.0959 19.62 98.1492 19.4133 97.2825 19C96.4292 18.5733 95.6892 18.0133 95.0625 17.32C94.4492 16.6133 93.9692 15.8267 93.6225 14.96C93.2892 14.08 93.1225 13.1867 93.1225 12.28ZM112.374 19.7C111.481 19.7 110.681 19.5533 109.974 19.26C109.281 18.9667 108.694 18.5667 108.214 18.06C107.734 17.5533 107.367 16.9733 107.114 16.32C106.874 15.6667 106.754 14.98 106.754 14.26C106.754 13.5267 106.874 12.8333 107.114 12.18C107.367 11.5267 107.734 10.9467 108.214 10.44C108.694 9.93333 109.281 9.53333 109.974 9.24C110.681 8.94667 111.481 8.8 112.374 8.8C113.267 8.8 114.061 8.94667 114.754 9.24C115.447 9.53333 116.034 9.93333 116.514 10.44C116.994 10.9467 117.361 11.5267 117.614 12.18C117.867 12.8333 117.994 13.5267 117.994 14.26C117.994 14.98 117.867 15.6667 117.614 16.32C117.361 16.9733 116.994 17.5533 116.514 18.06C116.034 18.5667 115.447 18.9667 114.754 19.26C114.061 19.5533 113.267 19.7 112.374 19.7ZM110.034 14.26C110.034 14.8067 110.134 15.2867 110.334 15.7C110.547 16.1133 110.827 16.4333 111.174 16.66C111.521 16.8867 111.921 17 112.374 17C112.814 17 113.207 16.8867 113.554 16.66C113.914 16.42 114.194 16.0933 114.394 15.68C114.594 15.2667 114.694 14.7933 114.694 14.26C114.694 13.7133 114.594 13.2333 114.394 12.82C114.194 12.4067 113.914 12.0867 113.554 11.86C113.207 11.6333 112.814 11.52 112.374 11.52C111.921 11.52 111.521 11.6333 111.174 11.86C110.827 12.0867 110.547 12.4067 110.334 12.82C110.134 13.2333 110.034 13.7133 110.034 14.26ZM136.181 19.5H132.981V13.6C132.981 12.92 132.854 12.42 132.601 12.1C132.348 11.78 132.021 11.62 131.621 11.62C131.194 11.62 130.774 11.7933 130.361 12.14C129.948 12.4867 129.654 12.9333 129.481 13.48V19.5H126.281V13.6C126.281 12.9067 126.154 12.4067 125.901 12.1C125.648 11.78 125.321 11.62 124.921 11.62C124.508 11.62 124.094 11.7933 123.681 12.14C123.268 12.4867 122.968 12.9333 122.781 13.48V19.5H119.581V9H122.461V10.76C122.848 10.1333 123.368 9.65333 124.021 9.32C124.688 8.97333 125.461 8.8 126.341 8.8C127.208 8.8 127.874 9.00667 128.341 9.42C128.808 9.82 129.108 10.2933 129.241 10.84C129.641 10.1867 130.168 9.68667 130.821 9.34C131.488 8.98 132.234 8.8 133.061 8.8C133.728 8.8 134.268 8.92667 134.681 9.18C135.094 9.42 135.408 9.74 135.621 10.14C135.834 10.54 135.981 10.9733 136.061 11.44C136.141 11.8933 136.181 12.34 136.181 12.78V19.5ZM144.912 19.7C144.126 19.7 143.439 19.5333 142.852 19.2C142.266 18.8533 141.806 18.3867 141.472 17.8V23.76H138.272V9H141.052V10.7C141.439 10.1 141.926 9.63333 142.512 9.3C143.099 8.96667 143.786 8.8 144.572 8.8C145.279 8.8 145.926 8.94 146.512 9.22C147.112 9.5 147.632 9.88667 148.072 10.38C148.512 10.8733 148.852 11.4467 149.092 12.1C149.332 12.7533 149.452 13.46 149.452 14.22C149.452 15.26 149.259 16.1933 148.872 17.02C148.486 17.8467 147.946 18.5 147.252 18.98C146.572 19.46 145.792 19.7 144.912 19.7ZM143.832 17C144.179 17 144.492 16.9267 144.772 16.78C145.066 16.62 145.319 16.4133 145.532 16.16C145.746 15.9067 145.906 15.6133 146.012 15.28C146.132 14.9333 146.192 14.5733 146.192 14.2C146.192 13.8133 146.126 13.46 145.992 13.14C145.872 12.82 145.699 12.54 145.472 12.3C145.246 12.0467 144.979 11.8533 144.672 11.72C144.366 11.5867 144.032 11.52 143.672 11.52C143.459 11.52 143.239 11.5533 143.012 11.62C142.799 11.6867 142.592 11.7867 142.392 11.92C142.206 12.04 142.032 12.1867 141.872 12.36C141.712 12.5333 141.579 12.7333 141.472 12.96V15.12C141.619 15.48 141.812 15.8 142.052 16.08C142.292 16.36 142.566 16.5867 142.872 16.76C143.179 16.92 143.499 17 143.832 17Z" fill="#B4B718"/>
</svg>
